<?xml version="1.0" encoding="UTF-8"?>
<!DOCTYPE svg PUBLIC "-//W3C//DTD SVG 1.1//EN" "http://www.w3.org/Graphics/SVG/1.1/DTD/svg11.dtd">
<!-- Creator: CorelDRAW (Not for commercial use) -->
<svg xmlns="http://www.w3.org/2000/svg" xml:space="preserve" width="4.61015in" height="9.09203in" version="1.1" style="shape-rendering:geometricPrecision; text-rendering:geometricPrecision; image-rendering:optimizeQuality; fill-rule:evenodd; clip-rule:evenodd"
viewBox="0 0 4562.73 8998.5"
 xmlns:xlink="http://www.w3.org/1999/xlink"
 xmlns:xodm="http://www.corel.com/coreldraw/odm/2003">
 <defs>
  <style type="text/css">
   <![CDATA[
    .str1 {stroke:black;stroke-width:6.87;stroke-miterlimit:2.61313}
    .str0 {stroke:#FF0059;stroke-width:6.87;stroke-miterlimit:2.61313}
    .str2 {stroke:#FFC300;stroke-width:6.87;stroke-miterlimit:2.61313}
    .fil4 {fill:#00EBCC}
    .fil6 {fill:#00FFA6}
    .fil15 {fill:#00FFEA}
    .fil14 {fill:#BF00FF}
    .fil5 {fill:#FAD500}
    .fil3 {fill:#FF0066}
    .fil2 {fill:#FF1500}
    .fil13 {fill:#FF7300}
    .fil1 {fill:#FF8800}
    .fil12 {fill:#FF9500}
    .fil11 {fill:#FFA100}
    .fil16 {fill:#FFBA0A}
    .fil10 {fill:#FFC300}
    .fil8 {fill:#FFCC00}
    .fil9 {fill:#FFD900}
    .fil7 {fill:#FFE500}
    .fil0 {fill:black}
   ]]>
  </style>
 </defs>
 <g id="Layer_x0020_1">
  <metadata id="CorelCorpID_0Corel-Layer"/>
  <g id="_105553846575168">
   <path class="fil0" d="M1918.12 1042.51c-88.14,-56.29 -94.97,-51.94 -150.06,-141.73 -36.88,-60.11 -68.06,-122.65 -95.88,-187.52 -64.27,9.44 -102.55,33.53 -150.67,60.22 17.65,119.26 109.75,214.47 98.26,353.39 -34.24,414.11 -395.47,203.16 -470.09,179.18 -26.21,40.89 -48.04,70.13 -64.71,121.85 313.98,200.5 279.1,198.62 187.95,498.63 -103.4,340.32 -305.6,532.63 -549.79,738.91l-458.5 371.09c-23.05,17.71 -39.76,29.91 -65.91,41.21 -74.31,32.12 -363.66,90.75 -69.21,299.37 309.92,219.58 325.31,27.91 366.88,-28.02 86.73,-116.69 545.58,-454.02 675.74,-511.35 482.08,-212.36 1026.34,34.83 1343.28,-259.94 87.95,-81.8 162.94,-185.63 298.55,-111.67 302.82,165.14 -290.45,742.52 -429.83,769.1 -100.85,19.23 -147.49,-20.16 -198.54,63.27 -76.8,125.51 26.12,457.68 -416.02,421.12 -24.66,38.47 -34.66,51.85 -61.72,85.75 78.32,182.66 64.7,391.1 -46.38,559.35 -13.59,20.58 -22.55,32.06 -43.2,48.15 -54.97,42.84 -80.19,23.56 -125.04,52.69 -16.98,11.02 -14.3,25.66 -47.01,81.37 72.49,130.03 149.28,176.84 126.97,446.61 -10.78,130.44 -78.13,171.46 -148.99,260.26 27.52,186.04 54.6,55.59 171.87,190.43 213.77,245.8 29.9,452.68 23.15,534.38 -3.1,37.46 45.45,94.62 64.89,96.22 121.51,10.05 230.67,-117.67 448.46,141.25 189.18,224.89 125.44,234.67 106.63,413.46l64.83 62.97c188.58,-33.56 277.35,-159.85 329.57,291.85 141.53,1224.18 -922.48,1408.59 -1423.66,800.69 -217.12,-263.35 -153.07,-853.5 200.59,-824.26 165.11,13.65 205.39,241.57 57.35,306.58 -68.19,29.94 -84.61,6.02 -155.07,-5.74 -13.63,226.23 328.04,191.56 424.64,4.95 27.18,-52.52 37.34,-119.64 68.48,-157.02 66.85,-80.25 80.29,8.13 94.45,-126.43 -63.52,-20.41 -98.7,-19.98 -136.56,-69.21 -90.98,-118.31 26.17,-289.21 -79.44,-283.44 -3.48,0.19 -52.62,17.67 -79.48,23.2 -243.73,50.23 -253.27,-110.24 -339.42,-141 -69.87,42.72 -51.28,84.87 -106.58,131.96 -38.67,32.93 -132.06,48.2 -199.23,42.64 -69.85,-5.77 -90.33,-98.25 -145.24,-33.74 -71.47,83.95 63.02,291.29 -117.96,357.56 -85.97,31.48 -162.7,-18.27 -172.03,94.49 -2.21,26.66 96.56,153.72 81.66,333.85 -15.87,191.92 -168.74,58.53 -177.71,167.02 -6.97,84.33 312.09,63.17 206.03,379.68 -25.87,67.16 -48.22,77.51 -64.53,97.78 -5.98,7.42 -15.19,14.02 -20.5,41.36 81.54,64.81 209.18,33.23 294.1,103.88 274.22,228.13 12.29,349.67 150.97,459.89 82.86,-14.89 110.01,-118.1 227.49,-108.39 422.32,34.92 294.81,351.47 443.41,363.75 54.33,4.49 58.64,-34.35 77.25,-67.46 21.35,-37.99 29.31,-56.09 59.44,-88.45 110.51,-118.68 346.11,-126.01 424.53,33.97 33.69,68.73 22.32,170.19 89.92,175.78 70.09,5.8 69.32,-79.27 96.02,-144.39 96.39,-235.1 428.44,-309.83 641.65,-177.08 75.94,47.28 74.93,73.45 134.8,121.04l74.29 -51.47c-23.48,-148.89 -101.54,-200.67 28.29,-441.7 109.25,-202.84 217.1,-261.77 431.86,-244.01 96.42,7.97 55.72,66.95 129.59,-25.62 -96.51,-157.11 -225.88,-131.31 -199.32,-452.6 17.04,-206 122.02,-357.77 295.88,-423.96 80.92,-30.81 119.34,-7.89 146.81,-84.58 -148.63,-86.89 -312.68,-28.98 -373.31,-389.43 -10.26,-60.94 0.8,-171.03 8.04,-258.6 50.85,32.47 219.44,98.07 334.34,128.04 89.32,23.29 147.85,43.63 117.83,-90.65 -8.72,-118.36 144.69,-234.21 171.56,-312.9 -42.94,-77.01 -117.46,-121.17 -107.22,-245.09 8.78,-106.21 110.26,-167.01 68.97,-241.91 -61.45,-111.49 -190.24,-116.36 -89.08,-356.13 14.35,-34 59.09,-93.59 61.71,-125.38 5.84,-70.64 -94.67,-89.73 -105.26,-197.09 -14.28,-144.72 327.04,-403.89 -282.97,-299.74 -143.2,24.45 -257.72,66.67 -364.14,125.71 7.89,-95.37 1.66,-160.85 41.47,-228.43 33.54,-56.92 95,-96.96 151.55,-118.6 163.96,-62.74 416.99,17.26 424.56,-74.36 6.17,-74.6 -254.57,-224.81 -226.54,-563.88 10.07,-121.84 91.74,-223.76 163.65,-282.61 102.61,-83.99 180.76,-88.69 357.54,-74.07 39.66,-237.16 38.9,-30.93 -145.51,-296.65 -134.2,-193.38 -138.1,-395.48 24.54,-578.62 63.31,-71.29 137.13,-97.44 222.63,-133.93l11.94 -144.38c-312.24,-100.34 -419.19,-503.28 -321.76,-794.74 42.11,-125.98 121.8,-150.6 188.28,-233.9l-30.21 -75.19c-256.58,-15.48 -417.27,147.18 -743.02,-93.66 -278.28,-205.75 -101.54,-447.86 -71.44,-627.85l-122.58 -49.02c-136.69,83.26 -378.32,389.2 -686.5,363.72 -371.03,-30.68 -444.53,-289.51 -300.65,-552.13 41.57,-75.87 97.51,-103.34 125.2,-189.24 -47.77,-37.98 -52.76,-33.14 -104.04,-63.12 -117.99,65.46 -278.19,303.42 -340.81,450.27 -93.56,219.42 -38.09,446.54 -237.09,592.23z"/>
   <circle class="fil1" transform="matrix(0.666542 0.0551136 -5.51136E-002 0.666542 2280.28 739.534)" r="102.19"/>
   <circle class="fil2" transform="matrix(0.427945 0.0353851 -3.53851E-002 0.427945 2283.54 444.776)" r="102.19"/>
   <circle class="fil3 str0" transform="matrix(0.495053 0.0409339 -4.09339E-002 0.495053 3398.39 670.492)" r="102.19"/>
   <circle class="fil1" transform="matrix(0.450816 0.0372761 -3.72761E-002 0.450816 1679.66 926.426)" r="102.19"/>
   <circle class="fil1" transform="matrix(0.348263 0.0287964 -2.87964E-002 0.348263 1264.21 1433.67)" r="102.19"/>
   <circle class="fil3 str0" transform="matrix(0.271787 0.0224729 -2.24729E-002 0.271787 2393.54 213.022)" r="102.19"/>
   <circle class="fil3 str0" transform="matrix(0.536861 0.0443908 -4.43908E-002 0.536861 4147.66 1359.44)" r="102.19"/>
   <polygon class="fil4" points="3978.75,1835.86 3906.92,1906.67 3835.09,1977.47 3802.59,1895.55 3770.09,1813.61 3874.42,1824.74 "/>
   <polygon class="fil4" points="4017.92,2802.15 3925.12,2834.73 3832.33,2867.31 3837.74,2781.54 3843.15,2695.77 3930.53,2748.96 "/>
   <polygon class="fil4" points="4017.77,3285.13 3908.04,3317.62 3798.32,3350.1 3809.57,3250.74 3820.82,3151.37 3919.29,3218.25 "/>
   <circle class="fil3 str0" transform="matrix(0.666542 0.0551136 -5.51136E-002 0.666542 4320.29 2349.99)" r="102.19"/>
   <circle class="fil3 str0" transform="matrix(0.666542 0.0551136 -5.51136E-002 0.666542 4258.46 3332.99)" r="102.19"/>
   <circle class="fil3 str0" transform="matrix(0.666542 0.0551136 -5.51136E-002 0.666542 3847.43 4261.43)" r="102.19"/>
   <polygon class="fil4" points="3551.69,5224.2 3458,5301.02 3364.3,5377.85 3334.41,5276.28 3304.52,5174.7 3428.1,5199.45 "/>
   <rect class="fil5 str1" transform="matrix(1.04018 -3.19084E-001 0.164872 0.509601 3676.54 4902.52)" width="340.01" height="118.27"/>
   <rect class="fil5 str1" transform="matrix(1.0468 0.155821 -1.09516E-001 1.12958 3272.2 3028.42)" width="340.01" height="118.27"/>
   <rect class="fil5 str1" transform="matrix(2.0629 -4.59975E-002 0.0567269 0.821212 1816.93 5222.89)" width="340.01" height="118.27"/>
   <rect class="fil5 str1" transform="matrix(1.88488 0.406043 -2.42329E-001 0.821625 1791.88 4532.38)" width="340.01" height="118.27"/>
   <rect class="fil5 str1" transform="matrix(1.59409 0.812255 -4.49173E-001 0.88153 2011.93 3850.49)" width="340.01" height="118.27"/>
   <rect class="fil5 str1" transform="matrix(1.30247 0.841124 -4.65138E-001 0.720262 2424.28 3363.66)" width="340.01" height="118.27"/>
   <rect class="fil5 str1" transform="matrix(1.71647 -5.77923E-001 0.25778 0.765626 2038.24 5759.76)" width="340.01" height="118.27"/>
   <rect class="fil5 str1" transform="matrix(1.19811 -8.39029E-001 0.46398 0.662551 2502.53 6420.45)" width="340.01" height="118.27"/>
   <circle class="fil3 str0" transform="matrix(0.336765 0.0278457 -2.78457E-002 0.336765 2377.09 6551.22)" r="102.19"/>
   <circle class="fil3 str0" transform="matrix(0.417024 0.034482 -3.4482E-002 0.417024 1773.66 5941.53)" r="102.19"/>
   <circle class="fil6" transform="matrix(0.69069 0.0571103 -5.71103E-002 0.69069 1842.21 4968.81)" r="102.19"/>
   <circle class="fil3 str0" transform="matrix(0.375191 0.031023 -3.1023E-002 0.375191 1577.41 4541.65)" r="102.19"/>
   <circle class="fil3 str0" transform="matrix(0.332031 0.0274543 -2.74543E-002 0.332031 1831.17 3817.48)" r="102.19"/>
   <circle class="fil3 str0" transform="matrix(0.268981 0.022241 -2.2241E-002 0.268981 2260.98 3331.05)" r="102.19"/>
   <circle class="fil7 str0" transform="matrix(0.139676 0.0115492 -1.15492E-002 0.139676 1830.71 7015.05)" r="102.19"/>
   <circle class="fil7 str2" transform="matrix(0.0862955 0.00713542 -7.13542E-003 0.0862955 1384.69 7322.99)" r="102.19"/>
   <circle class="fil8" transform="matrix(0.176023 0.0145546 -1.45546E-002 0.176023 1494.04 7342.51)" r="102.19"/>
   <circle class="fil9" transform="matrix(0.251422 0.020789 -2.0789E-002 0.251422 1607.44 7270.44)" r="102.19"/>
   <circle class="fil9" transform="matrix(0.353899 0.0292625 -2.92625E-002 0.353899 1675.76 7090.35)" r="102.19"/>
   <circle class="fil9" transform="matrix(0.599509 0.049571 -4.9571E-002 0.599509 1533.1 6830.81)" r="102.19"/>
   <circle class="fil9" transform="matrix(0.816714 0.0675307 -6.75307E-002 0.816714 1135.84 6827.53)" r="102.19"/>
   <circle class="fil7 str0" transform="matrix(0.122166 0.0101014 -1.01014E-002 0.122166 1678.05 6688.03)" r="102.19"/>
   <circle class="fil7 str0" transform="matrix(0.122166 0.0101014 -1.01014E-002 0.122166 1273.09 6587.13)" r="102.19"/>
   <circle class="fil7 str0" transform="matrix(0.144536 0.0119511 -1.19511E-002 0.144536 858.53 6702.1)" r="102.19"/>
   <circle class="fil7 str0" transform="matrix(0.170838 0.0141259 -1.41259E-002 0.170838 599.155 7095.97)" r="102.19"/>
   <circle class="fil7 str0" transform="matrix(0.122166 0.0101014 -1.01014E-002 0.122166 510.879 7611.9)" r="102.19"/>
   <circle class="fil7 str0" transform="matrix(0.165921 -7.76931E-002 0.0776931 0.165921 3176.8 8671.17)" r="102.19"/>
   <circle class="fil7 str0" transform="matrix(0.227399 0.0188027 -1.88027E-002 0.227399 1671.18 8808.12)" r="102.19"/>
   <circle class="fil7 str0" transform="matrix(0.228301 0.0188773 -1.88773E-002 0.228301 1035.07 8572.57)" r="102.19"/>
   <circle class="fil7 str0" transform="matrix(0.188397 0.0155778 -1.55778E-002 0.188397 671.781 8091.52)" r="102.19"/>
   <circle class="fil7 str0" transform="matrix(0.143729 -1.91475E-001 0.191475 0.143729 3709.12 7980.58)" r="102.19"/>
   <circle class="fil7 str0" transform="matrix(0.186912 0.0282032 -2.82032E-002 0.186912 2321.93 8863.74)" r="102.19"/>
   <circle class="fil3 str0" transform="matrix(0.0530593 -1.90235E-001 0.190235 0.0530593 3947.43 7081.5)" r="102.19"/>
   <circle class="fil10" transform="matrix(1.13151 0.09356 -9.356E-002 1.13151 844.629 7217.92)" r="102.19"/>
   <circle class="fil11" transform="matrix(1.07718 0.0890674 -8.90674E-002 1.07718 885.495 7734.12)" r="102.19"/>
   <circle class="fil12" transform="matrix(1.33677 0.110532 -1.10532E-001 1.33677 1190.11 8168.73)" r="102.19"/>
   <circle class="fil1" transform="matrix(1.37607 0.113781 -1.13781E-001 1.37607 1758.94 8400.99)" r="102.19"/>
   <circle class="fil13" transform="matrix(1.29811 0.107336 -1.07336E-001 1.29811 2395.17 8346.09)" r="102.19"/>
   <circle class="fil6" transform="matrix(0.808297 0.0668348 -6.68348E-002 0.808297 3466.26 7817.6)" r="102.19"/>
   <circle class="fil6" transform="matrix(0.85266 0.0705029 -7.05029E-002 0.85266 3620.21 7038.33)" r="102.19"/>
   <rect class="fil5 str1" transform="matrix(1.10246 -1.81799E-001 0.0908991 0.551228 3716.63 5056.5)" width="340.01" height="118.27"/>
   <rect class="fil5 str1" transform="matrix(0.991044 -9.36034E-002 0.046801 0.495525 3759.09 5236.06)" width="340.01" height="118.27"/>
   <rect class="fil5 str1" transform="matrix(0.919904 -9.06468E-003 -1.32863E-002 0.506948 3773.04 5406.33)" width="340.01" height="118.27"/>
   <rect class="fil5 str1" transform="matrix(0.814134 0.0174759 -1.98459E-002 0.408584 3823.68 5587.79)" width="340.01" height="118.27"/>
   <rect class="fil5 str1" transform="matrix(0.763219 0.0431073 -3.2024E-002 0.382664 3844.78 5763.54)" width="340.01" height="118.27"/>
   <rect class="fil5 str1" transform="matrix(0.960394 0.133323 -8.00075E-002 0.480453 3798.8 5902.65)" width="340.01" height="118.27"/>
   <rect class="fil5 str1" transform="matrix(0.928656 0.25828 -1.42323E-001 0.462814 3808.56 6058.9)" width="340.01" height="118.27"/>
   <rect class="fil5 str1" transform="matrix(0.738509 0.313807 -1.67621E-001 0.366575 3817.76 6213.94)" width="340.01" height="118.27"/>
   <polygon class="fil4" points="3614.08,5638.66 3522.67,5693.84 3431.26,5749.02 3418.01,5656.66 3404.76,5564.3 3509.42,5601.48 "/>
   <polygon class="fil4" points="3657.5,6036.58 3569.63,6079.67 3481.76,6122.76 3477.03,6037.37 3472.3,5951.98 3564.9,5994.28 "/>
   <polygon class="fil4" points="3432.34,4870.91 3350.56,4890.42 3268.79,4909.92 3280.96,4837.48 3293.13,4765.02 3362.74,4817.97 "/>
   <circle class="fil3 str0" transform="matrix(0.0845209 -3.03036E-001 0.303036 0.0845209 4262.34 6141.28)" r="102.19"/>
   <circle class="fil3 str0" transform="matrix(0.0659425 -2.36426E-001 0.236426 0.0659425 4127.14 6495.61)" r="102.19"/>
   <circle class="fil3 str0" transform="matrix(0.0845209 -3.03036E-001 0.303036 0.0845209 4254.74 5693.81)" r="102.19"/>
   <circle class="fil3 str0" transform="matrix(0.0845209 -3.03036E-001 0.303036 0.0845209 4212.32 5162.71)" r="102.19"/>
   <circle class="fil3 str0" transform="matrix(0.0845209 -3.03036E-001 0.303036 0.0845209 4173.14 4731.31)" r="102.19"/>
   <circle class="fil14" transform="matrix(0.971745 0.0803496 -8.03496E-002 0.971745 2201.82 4974.05)" r="102.19"/>
   <circle class="fil6" transform="matrix(0.611069 0.326969 -3.26969E-001 0.611069 1933.74 4260.16)" r="102.19"/>
   <circle class="fil14" transform="matrix(0.859725 0.460019 -4.60019E-001 0.859725 2248.29 4364.37)" r="102.19"/>
   <circle class="fil6" transform="matrix(0.583069 0.374625 -3.74625E-001 0.583069 2269.01 3679.88)" r="102.19"/>
   <circle class="fil14" transform="matrix(0.820332 0.527067 -5.27067E-001 0.820332 2522.53 3833.28)" r="102.19"/>
   <circle class="fil6" transform="matrix(0.689586 -6.91768E-002 0.0691768 0.689586 1962.42 5553.22)" r="102.19"/>
   <circle class="fil14" transform="matrix(0.970192 -9.73263E-002 0.0973263 0.970192 2323.45 5491.06)" r="102.19"/>
   <circle class="fil6" transform="matrix(0.671228 -1.72532E-001 0.172532 0.671228 2342.36 6123.01)" r="102.19"/>
   <circle class="fil14" transform="matrix(0.944363 -2.42739E-001 0.242739 0.944363 2623.54 5968.64)" r="102.19"/>
   <circle class="fil14" transform="matrix(0.938109 -2.41131E-001 0.241131 0.938109 2874.5 6684.16)" r="102.19"/>
   <circle class="fil14" transform="matrix(0.798955 -2.05363E-001 0.205363 0.798955 2900.86 7097.22)" r="102.19"/>
   <circle class="fil6" transform="matrix(0.6551 -1.68386E-001 0.168386 0.6551 2865.52 7461.12)" r="102.19"/>
   <circle class="fil3 str0" transform="matrix(0.522834 -1.34389E-001 0.134389 0.522834 2755.38 7777.43)" r="102.19"/>
   <circle class="fil14" transform="matrix(1.10058 -2.82892E-001 0.282892 1.10058 2770.86 3244.38)" r="102.19"/>
   <circle class="fil6" transform="matrix(0.798927 -2.05356E-001 0.205356 0.798927 3006.83 2997.27)" r="102.19"/>
   <circle class="fil3 str0" transform="matrix(0.644632 -1.65696E-001 0.165696 0.644632 3135.85 2730.82)" r="102.19"/>
   <circle class="fil3 str0" transform="matrix(0.477828 -1.22821E-001 0.122821 0.477828 3139.75 2441.16)" r="102.19"/>
   <circle class="fil3 str0" transform="matrix(0.338118 -8.69095E-002 0.0869095 0.338118 3078.78 2231.79)" r="102.19"/>
   <rect class="fil5 str1" transform="matrix(1.0468 0.155821 -1.09516E-001 1.12958 3157.59 3299.18)" width="340.01" height="118.27"/>
   <rect class="fil5 str1" transform="matrix(1.0468 0.155821 -1.09516E-001 1.12958 3133.61 3580.96)" width="340.01" height="118.27"/>
   <rect class="fil5 str1" transform="matrix(1.0468 0.155821 -1.09516E-001 1.12958 3038.97 3800.1)" width="340.01" height="118.27"/>
   <rect class="fil5 str1" transform="matrix(1.0468 0.155821 -1.09516E-001 1.12958 2886.67 3985.94)" width="340.01" height="118.27"/>
   <rect class="fil5 str1" transform="matrix(1.0468 0.155821 -1.09516E-001 1.12958 2824.66 4253.16)" width="340.01" height="118.27"/>
   <rect class="fil5 str1" transform="matrix(1.0468 0.155821 -1.09516E-001 1.12958 2683.67 4514.65)" width="340.01" height="118.27"/>
   <rect class="fil5 str1" transform="matrix(1.05629 0.0658399 -1.26338E-002 1.13481 2684.56 4824.3)" width="340.01" height="118.27"/>
   <rect class="fil5 str1" transform="matrix(1.05629 0.0658399 -1.26338E-002 1.13481 2713.2 5133.13)" width="340.01" height="118.27"/>
   <rect class="fil5 str1" transform="matrix(1.05629 0.0658399 -1.26338E-002 1.13481 2827.84 5441.31)" width="340.01" height="118.27"/>
   <rect class="fil5 str1" transform="matrix(1.05629 0.0658399 -1.26338E-002 1.13481 2901.77 5727.05)" width="340.01" height="118.27"/>
   <rect class="fil5 str1" transform="matrix(0.924591 0.0549505 -2.27056E-002 1.13398 3049.48 6059.18)" width="340.01" height="118.27"/>
   <rect class="fil5 str1" transform="matrix(0.936706 0.0559523 -2.17791E-002 1.13405 3098.11 6359.2)" width="340.01" height="118.27"/>
   <rect class="fil5 str1" transform="matrix(0.80309 0.0808857 -8.2086E-002 1.1307 3128.92 6670.03)" width="340.01" height="118.27"/>
   <rect class="fil5 str1" transform="matrix(0.922889 0.0785057 -5.16098E-002 1.13303 3094.83 7000.3)" width="340.01" height="118.27"/>
   <rect class="fil5 str1" transform="matrix(0.816286 0.0518626 0.0129495 1.1323 3109.78 7319.85)" width="340.01" height="118.27"/>
   <rect class="fil5 str1" transform="matrix(0.651515 0.25867 -3.59131E-001 1.07215 3057.67 7586.41)" width="340.01" height="118.27"/>
   <rect class="fil5 str1" transform="matrix(0.576887 0.398225 -5.90484E-001 0.964271 2935.58 7840.47)" width="340.01" height="118.27"/>
   <rect class="fil5 str1" transform="matrix(0.492511 0.445064 -6.73367E-001 0.832508 2797.38 8109.37)" width="340.01" height="118.27"/>
   <rect class="fil5 str1" transform="matrix(0.75768 -2.8725E-001 -3.33024E-001 -5.88351E-001 3348 2201.8)" width="340.01" height="118.27"/>
   <rect class="fil5 str1" transform="matrix(0.852466 0.0109357 -1.73781E-001 -5.80446E-001 3383.04 2422.87)" width="340.01" height="118.27"/>
   <rect class="fil5 str1" transform="matrix(0.922143 0.0737194 -5.02819E-002 -5.80628E-001 3363.69 2643.33)" width="340.01" height="118.27"/>
   <rect class="fil5 str1" transform="matrix(0.922121 0.0740944 -2.85481E-002 -8.13458E-001 3337.17 2895.52)" width="340.01" height="118.27"/>
   <polygon class="fil4" points="3457.48,4506.99 3375.9,4503.77 3294.32,4500.54 3324.72,4436 3355.11,4371.45 3406.3,4439.22 "/>
   <polygon class="fil4" points="3649.66,4151.09 3563.96,4142.18 3478.26,4133.28 3514.63,4067.35 3551,4001.43 3600.33,4076.26 "/>
   <polygon class="fil4" points="3803.29,3749.8 3713.66,3747.95 3624.02,3746.1 3656.06,3674.61 3688.1,3603.11 3745.69,3676.46 "/>
   <circle class="fil3 str0" transform="matrix(0.425879 -1.09468E-001 0.109468 0.425879 2588.8 8011.79)" r="102.19"/>
   <circle class="fil15" transform="matrix(0.425879 -1.09468E-001 0.109468 0.425879 3592.34 6544.48)" r="102.19"/>
   <circle class="fil16" transform="matrix(0.974851 0.0806064 -8.06064E-002 0.974851 1825.71 1804.87)" r="102.19"/>
   <circle class="fil3 str0" transform="matrix(0.338118 -8.69095E-002 0.0869095 0.338118 2856.12 2013.26)" r="102.19"/>
   <circle class="fil3 str0" transform="matrix(0.415296 0.0343391 -3.43391E-002 0.415296 1576.22 5268.32)" r="102.19"/>
   <polygon class="fil4" points="4057.29,2318.01 3959.32,2354.98 3861.34,2391.95 3864.98,2300.52 3868.62,2209.08 3962.96,2263.54 "/>
   <polygon class="fil4" points="3825.82,1427.9 3766.48,1509.46 3707.14,1591.02 3661.74,1515.48 3616.33,1439.94 3721.07,1433.92 "/>
   <polygon class="fil4" points="3531.58,1158.52 3506.24,1229.8 3480.9,1301.07 3432.18,1256.39 3383.47,1211.71 3457.52,1185.12 "/>
   <polygon class="fil4" points="3260.56,907.89 3251.55,983 3242.53,1058.11 3185.17,1025.26 3127.8,992.41 3194.18,950.15 "/>
   <polygon class="fil4" points="2900.22,886.79 2927.81,945.6 2955.39,1004.42 2898.66,1006.57 2841.93,1008.73 2871.08,947.76 "/>
   <polygon class="fil4" points="2615.15,898.84 2645,956.54 2674.85,1014.25 2618.24,1018.6 2561.64,1022.95 2588.4,960.89 "/>
   <polygon class="fil4" points="2291.74,938.74 2337.44,984.91 2383.14,1031.08 2330.42,1052.12 2277.69,1073.16 2284.72,1005.95 "/>
   <rect class="fil5 str1" transform="matrix(0.524543 -2.89838E-001 -3.05573E-001 -3.95772E-001 3313.2 1974.34)" width="340.01" height="118.27"/>
   <rect class="fil5 str1" transform="matrix(0.470471 -3.71226E-001 -3.65826E-001 -3.40854E-001 3250.39 1774.11)" width="340.01" height="118.27"/>
   <rect class="fil5 str1" transform="matrix(0.27006 -3.67146E-001 -3.3703E-001 -1.76108E-001 3134.06 1605.46)" width="340.01" height="118.27"/>
  </g>
 </g>
</svg>
